<svg xmlns="http://www.w3.org/2000/svg" width="24" height="24" viewBox="0 0 24 24" fill="currentColor" aria-hidden="true">
<g transform="translate(3.9 1) scale(0.0019 -0.0019) translate(0 -12540)">
<path d="M4280 11481 c-94 -30 -119 -67 -180 -256 -83 -262 -142 -539 -172
-800 -14 -130 -18 -631 -6 -751 l8 -70 -148 -17 c-940 -108 -1789 -586 -2299
-1292 -297 -411 -492 -976 -497 -1440 -1 -145 19 -216 95 -329 57 -86 117
-144 222 -214 l77 -53 0 -67 c1 -177 21 -852 30 -995 34 -532 92 -934 190
-1332 170 -691 444 -1184 911 -1641 272 -265 518 -437 913 -635 322 -162 403
-234 526 -467 36 -68 82 -110 157 -144 68 -31 208 -32 275 -1 75 34 135 97
183 193 88 172 203 273 455 397 301 149 504 274 703 434 455 365 792 815 997
1329 136 342 242 789 300 1260 51 424 68 703 77 1247 l6 423 81 59 c154 112
258 247 300 390 20 69 21 197 1 363 -56 478 -238 923 -536 1308 -101 131 -331
364 -469 475 -502 404 -1113 656 -1775 731 -82 9 -153 20 -157 23 -9 8 7 229
28 381 48 364 148 669 278 853 22 32 49 73 58 90 83 150 -145 430 -428 527
-62 22 -169 32 -204 21z m164 -161 c127 -40 272 -158 322 -265 29 -61 20 -75
-45 -75 -143 0 -348 136 -417 277 -22 43 -24 56 -14 68 17 21 76 19 154 -5z
m-148 -288 l80 -77 -24 -65 c-94 -257 -150 -622 -158 -1030 l-4 -245 -59 -3
-59 -3 -9 108 c-22 284 -2 678 48 963 19 109 96 430 103 430 0 0 37 -35 82
-78z m239 -156 c33 -14 77 -29 98 -32 20 -4 37 -11 37 -16 0 -4 -18 -44 -40
-87 -109 -218 -194 -587 -222 -968 l-12 -163 -57 0 -57 0 -7 93 c-8 109 8 429
30 602 21 167 59 349 102 488 29 94 40 117 52 113 9 -2 43 -16 76 -30z m-388
-1441 c-7 -45 -65 -180 -109 -252 -75 -126 -208 -230 -365 -284 -77 -26 -95
-24 -173 17 -76 40 -170 130 -215 207 -28 48 -88 188 -83 192 9 9 166 50 284
74 226 48 328 60 643 80 22 1 23 -2 18 -34z m518 9 c160 -17 406 -63 533 -100
47 -14 88 -27 91 -29 6 -7 -49 -138 -81 -190 -59 -97 -141 -174 -233 -219 -67
-33 -81 -32 -183 3 -142 50 -243 131 -331 265 -52 80 -109 207 -118 262 l-6
34 94 -6 c52 -3 157 -12 234 -20z m-1585 -230 c60 -174 184 -332 328 -414 34
-19 62 -40 62 -47 0 -16 -109 -161 -151 -199 -133 -124 -364 -214 -514 -202
-100 8 -253 135 -323 266 -37 68 -88 218 -97 282 l-6 45 92 54 c178 105 554
277 583 268 5 -2 17 -25 26 -53z m2495 4 c125 -49 323 -148 450 -224 l97 -58
-6 -51 c-12 -103 -74 -255 -141 -347 -41 -56 -129 -128 -200 -165 -45 -23 -57
-25 -130 -20 -195 15 -388 109 -507 249 -76 89 -124 161 -110 166 40 13 166
108 215 163 81 89 130 175 181 322 7 22 9 21 151 -35z m-1315 19 c0 -6 24 -52
54 -102 112 -186 251 -303 443 -370 l62 -21 -34 -78 c-94 -216 -227 -349 -426
-426 -93 -36 -119 -37 -202 -9 -188 63 -351 214 -442 412 -19 42 -35 82 -35
91 0 9 20 21 53 31 198 65 375 223 474 422 32 64 53 84 53 50z m-1996 -458
c52 -211 175 -392 340 -499 l65 -42 -31 -45 c-18 -24 -71 -81 -118 -126 -130
-125 -274 -192 -470 -216 -68 -9 -79 -8 -120 12 -104 51 -220 203 -266 349
l-17 57 58 73 c85 107 336 353 443 436 52 40 95 72 97 72 1 0 10 -32 19 -71z
m4074 2 c168 -127 324 -280 474 -464 l56 -69 -24 -71 c-13 -40 -39 -96 -57
-126 -38 -64 -138 -158 -198 -188 -40 -19 -52 -20 -119 -12 -228 29 -402 123
-546 297 -83 100 -82 92 -10 140 84 55 186 165 235 254 40 72 101 239 101 278
0 11 3 20 6 20 3 0 40 -26 82 -59z m-2760 -194 c21 -60 110 -192 176 -263 80
-88 192 -166 299 -210 45 -18 88 -34 95 -34 18 0 15 -21 -17 -110 -81 -221
-230 -359 -457 -421 -72 -20 -86 -21 -156 -10 -302 46 -521 246 -622 569 -14
46 -26 87 -26 92 0 4 24 11 53 15 90 13 217 54 310 102 68 35 113 68 181 134
50 48 102 105 116 128 14 22 27 41 30 41 4 0 11 -15 18 -33z m1395 -14 c89
-121 234 -235 373 -293 76 -32 226 -69 277 -70 15 0 27 -4 27 -9 0 -21 -61
-194 -86 -243 -118 -232 -315 -376 -576 -418 -97 -16 -183 2 -308 62 -155 74
-283 233 -335 412 -17 60 -12 75 21 76 26 0 144 56 215 101 128 83 266 244
321 377 12 28 25 52 29 52 4 0 23 -21 42 -47z m-3415 -497 c35 -97 155 -239
264 -314 l48 -33 -24 -63 c-39 -103 -66 -147 -125 -207 -102 -102 -214 -143
-389 -143 -67 0 -117 5 -123 11 -22 22 73 305 165 493 54 112 156 290 166 290
3 0 12 -15 18 -34z m1272 -196 c47 -91 120 -188 199 -262 45 -42 81 -80 81
-85 0 -18 -102 -122 -153 -156 -79 -53 -161 -77 -260 -77 -148 0 -285 52 -420
159 -115 91 -229 235 -195 245 7 2 55 14 106 26 117 27 229 73 310 129 77 52
180 147 217 201 l29 41 31 -88 c17 -48 42 -108 55 -133z m3064 86 c75 -74 182
-144 278 -184 82 -34 218 -72 258 -72 15 0 29 -3 33 -6 12 -13 -37 -90 -97
-152 -119 -125 -230 -194 -373 -233 -110 -30 -253 -24 -338 15 -79 36 -154 95
-206 162 l-42 55 24 16 c52 34 177 174 222 250 26 44 64 126 84 182 l36 102
30 -38 c17 -21 58 -65 91 -97z m1133 37 c59 -100 120 -228 168 -353 32 -84 95
-295 95 -318 0 -17 -201 -16 -267 2 -165 44 -280 159 -344 343 -16 48 -17 58
-5 65 101 57 217 182 263 284 15 35 30 64 33 64 3 0 29 -39 57 -87z m-2727
-244 c47 -84 137 -179 221 -234 68 -46 203 -106 267 -120 17 -3 32 -12 32 -18
0 -7 -18 -53 -38 -103 -97 -232 -263 -389 -465 -440 -59 -14 -76 -15 -125 -4
-178 39 -343 172 -436 349 -33 63 -89 202 -84 206 2 2 28 10 60 19 214 61 386
198 483 385 32 60 27 63 85 -40z m-2279 -319 c17 -58 53 -153 79 -212 l48
-108 -14 -62 c-40 -189 -134 -361 -264 -481 -85 -79 -174 -126 -307 -162
l-102 -28 -57 34 c-88 53 -197 166 -236 246 -32 65 -33 73 -33 183 0 63 6 163
14 221 l14 106 136 -5 c115 -4 150 -1 223 17 190 45 333 157 414 324 36 73 43
66 85 -73z m4679 -77 c74 -76 157 -128 254 -160 72 -24 98 -27 226 -28 l145
-2 7 -44 c3 -24 11 -106 18 -181 10 -121 10 -143 -5 -195 -23 -79 -67 -154
-129 -217 -59 -61 -172 -146 -192 -146 -44 0 -236 74 -294 113 -177 120 -305
313 -361 542 l-22 90 33 65 c18 35 48 106 66 157 19 52 53 121 76 153 l42 60
40 -76 c23 -41 66 -100 96 -131z m-1320 -6 c69 -74 172 -142 263 -175 62 -23
88 -26 192 -26 137 0 228 20 345 79 39 18 70 32 70 29 0 -2 -18 -37 -41 -77
-137 -241 -326 -402 -520 -443 -253 -53 -532 182 -657 551 -34 102 -38 94 63
120 50 13 110 32 135 43 l45 20 25 -31 c14 -18 50 -58 80 -90z m-2074 89 c32
-13 85 -30 117 -37 32 -7 60 -15 62 -18 6 -11 -42 -149 -83 -234 -136 -280
-371 -450 -578 -417 -210 34 -422 215 -558 479 -26 50 -44 91 -41 91 4 0 19
-8 33 -19 103 -72 268 -129 402 -137 219 -15 441 99 564 289 10 15 19 27 20
27 2 0 29 -11 62 -24z m398 -444 c20 -27 65 -77 101 -111 36 -33 65 -62 65
-64 0 -2 -66 -7 -147 -12 -82 -4 -205 -12 -275 -19 -71 -6 -128 -9 -128 -6 0
4 16 21 35 40 53 52 129 167 181 274 l47 96 42 -74 c23 -41 59 -97 79 -124z
m1246 109 c51 -105 114 -201 176 -270 l48 -54 -64 7 c-136 14 -308 26 -375 26
-38 0 -80 3 -92 6 -21 6 -19 9 25 44 76 62 171 188 216 288 11 23 21 41 23 38
2 -2 21 -40 43 -85z m1310 -213 c32 -90 85 -193 136 -266 24 -35 44 -65 44
-66 0 -2 -33 5 -72 15 -40 10 -145 35 -233 54 -88 20 -170 38 -183 41 -21 4
-18 8 30 41 79 54 171 136 214 193 21 27 39 50 40 50 1 0 11 -28 24 -62z
m-3881 -77 c36 -34 94 -81 128 -104 l62 -41 -187 -42 c-103 -23 -215 -49 -248
-58 -34 -9 -64 -16 -68 -16 -3 0 14 28 38 63 63 89 99 165 152 317 4 10 12 5
31 -20 14 -19 56 -64 92 -99z m2201 -141 c737 -29 1316 -116 1960 -297 160
-44 402 -123 414 -133 10 -10 -9 -823 -24 -1055 -44 -668 -137 -1202 -287
-1645 -161 -480 -430 -899 -802 -1252 -250 -238 -494 -405 -855 -585 -202
-101 -286 -154 -379 -242 -79 -74 -113 -121 -177 -240 -38 -72 -52 -88 -90
-109 -37 -19 -56 -23 -106 -20 -92 6 -128 34 -189 147 -104 197 -231 306 -530
458 -420 212 -625 354 -899 622 -415 407 -667 835 -831 1411 -164 578 -235
1181 -252 2138 -5 325 -4 382 8 382 8 0 104 27 214 60 684 205 1305 314 1985
350 390 20 525 22 840 10z"/>
</g>
</svg>
